<?xml version="1.0" encoding="UTF-8"?>
<svg version="1.1" viewBox="0 0 2048 312" width="1280" height="1280" xmlns="http://www.w3.org/2000/svg">
<path transform="translate(0)" d="m0 0h2048v312h-2048z" fill="#ED1408"/>
<path transform="translate(239,71)" d="m0 0h41l56 4 24 4 21 5 15 5 10 1 51-4 43-2 47-2 17-1 1 7-1 1-49 1-43 2-53 5-3 1 10 9 3 6v9l-2 2h-6l-7-8v-2h-2v-2l-4-2-14-8-2-1-19 1-26 4-33 7-37 10-13 4-13 5 1 2-11 4-1 3-6 3-1 4-4 4v9l1 3h2l1 4 6 2v3l10 4v2l10 3 16 6 34 9 53 11 55 7 32 3 52 3 68 1-1 2-35 2-52 2h-11l-28-2-36-2-25-2-35-4-21-2-48-7-40-8-27-7-24-7-1-2-18-5 3-4-9-1-2-1 2-5h-6l-2-2-3-7 1-9 6-8 5-3 1-2 11-6 5-3 24-9 21-6 33-7 26-5 46-6 30-3 3-1-10-3-50-6h-73l-33 4-30 5-24 7-4 1 3 2-13 3h-2l1 4-9 2 1 4-4 1-1-3-2-1-1 3-2-1v-2l2-2-1-3 7-8 14-8 24-8 26-6 33-4z" fill="#FEFAFA"/>
<path transform="translate(1019,111)" d="m0 0h27l9 2 10 4 2 4 1 22 17-4 29-4h20l31 3 15 3 16 6 6 4 5 5 2 7-3 7-9 8-15 8-24 8-23 4-11 1h-26l-21-1-13-2h-25l-13-3-6-4-3-4 1-4 10-2 2-39v-10l-18-2h-14v-9l3-3 13-4z" fill="#FEFAFB"/>
<path transform="translate(1246,139)" d="m0 0h175l1 1v7l-5 3-17 5-28 7-42 10-30 6-6 3 9 1h44l21-1 4-8 6-4 12-3h25l10 3 5 6 1 4-5 8-6 2h-5l2 4-22 4-2 1-9 1-181 1v-10l10-4 20-6 57-13 41-9-5-1-22-1h-80l-3-2 1-5 6-5 11-4z" fill="#FEFBFB"/>
<path transform="translate(479,113)" d="m0 0h18l16 4 6 6v7l-4 6-10 6-3 3v2l13 4 8 6 2 5 2 15 1 3 7 1 17 1-1 8-1 4-10 2h-5v2l2 1h-22l-14-2-9-4-3-7v-10l-3-7-5-3v-2l-17-4-27-3h-23l-20 3-6 1v13l-1 13-3 7-6 3-5 1h-15l-12-3-5-3-2-4v-5l1-1 9-2 1-3v-45l-31-2-1-5 5-6 7-3 11-2h29l11 3 5 6 1 4v21l21-6 14-2 14-1 34-1 7-2 2-5-21-2-2-1 1-5 5-4 12-5z" fill="#FEFAFB"/>
<path transform="translate(570,113)" d="m0 0h32l12 5 4 6 1 6v18l17-5 17-3 10-1h31l24 3 22 6 8 4 5 5 3 4 3 17v3l9 1 1 4-2 8-14 2-2 1 1 2h-11l-11-1-6-4-3-9-1-11-3-5-9-6-21-4-18-2h-23l-16 2-9 2-2 26-2 7-2 1-10 1 2 2-13 1-10-1-9-3-2-1-3-9v-3l11-1-1-50-30-1-2-2 1-5 6-5 10-4z" fill="#FEFAFB"/>
<path transform="translate(1693,138)" d="m0 0h14l12 2 8 5 1 2 9-1 21-5 20-2h27l21 2 26 7 8 4 7 5 3 6 2 13v5l31 1v5l-2 5-1 2-12 2-4 3h-19l-16-1-10-3-5-6-2-7v-9l-1-4-8-4-2-2-13-3-15-2-17-1h-13l-19 2-11 3-1 10 2 8 14 2h9l1 2-4 10-11 3-7 2h-16l-12-1-9-4-4-7-1-24-2-6-23-2-1-4 4-6 9-4z" fill="#FEFAFA"/>
<path transform="translate(796,138)" d="m0 0 22 1 12 3 5 3 4 5 1 3 1 12 1 4 5 2 4 3 10 3 20 3h30l20-2 8-3 1-2v-11l-2-6-23-1 1-7 2-4 14-5 15-1 12 1 13 4 5 6 1 5 1 22 1 4 23 2-1 9-1 3-14 3-4 2h-21l-9-2-8-5-3-2-6 1-11 3-30 4h-29l-18-2-26-6-12-6-5-4-3-6-2-18-30-1-1-5 5-6 14-5z" fill="#FEFAFB"/>
<path transform="translate(1607,138)" d="m0 0 19 1 13 4 4 5 2 6 1 21 1 5 23 2v6l-2 6-16 2v3h-25l-8-2-8-6-5-1-15 4-36 4h-29l-26-5-16-5-9-5-5-6-3-17v-3l-30-2-1-4 3-5 8-5 8-2h29l15 4 5 5 3 6 1 12 5 5 7 4 19 4 9 1h31l18-2 10-3 1-7-3-10-7-2-16-1-1-3 4-8 9-4z" fill="#FEFBFB"/>
<path transform="translate(1387,156)" d="m0 0h5l-4 2-45 11-37 8-9 2-3 2 9 1h44l21-1 4-8 6-4 12-3h25l10 3 5 6 1 4-5 8-6 2h-5l2 4-22 4-2 1-9 1-181 1v-10h1v7l7-4 12-1 36 2h19l16-3h20v-3l-6-1h-15l-6-4v-3l12-6 5-2 16-2 55-11z" fill="#FEE8EC"/>
<path transform="translate(2046,270)" d="m0 0h2v42h-89l-1-2 4-10 4-7 3-5 2-2 16-2 21-2 18 2h7l4-5 1-2h2l2-4h2v-2z" fill="#A2140D"/>
<path transform="translate(1088,155)" d="m0 0h34l21 3 13 4 8 5 3 4-1 5-10 3-12 1h-30l-20-3-15-5-8-5v-10l3-1z" fill="#ED1408"/>
<path transform="translate(1390,166)" d="m0 0h25l10 3 5 6 1 4-5 8-2 1-10 1-3 3-18 3h-17l-8-4v-2l-4 1 1-3h6v-13l5-4 9-3z" fill="#FEFAFB"/>
<path transform="translate(559,81)" d="m0 0h5l1 7-1 1-49 1-43 2-9 1h-10v-1l12-2 1-1 7-1h-32v-1l31-2 57-2z" fill="#FEDCE0"/>
<path transform="translate(1246,139)" d="m0 0h175v1l-10 1-41 2h-122l-13-1 4-2z" fill="#FFE8EC"/>
<path transform="translate(404,66)" d="m0 0h11l19 6 2 3-7 3-13 4h-13l-17-5-3-2v-2l16-5z" fill="#FEF7F8"/>
<path transform="translate(481,221)" d="m0 0h20l68 1-1 2-35 2-52 2h-11l-28-2v-1l34-1 4-1z" fill="#FFE8EC"/>
<path transform="translate(1604,187)" d="m0 0 7 1-1 2-8 1-11 3-36 4h-29l-21-4v-1l76-1 11-1z" fill="#FFE8EC"/>
<path transform="translate(1167,189)" d="m0 0 4 1-13 4-23 4-11 1h-26l-21-1-13-2h-25l-6-1v-1h48l7 1h21l25-2 21-1z" fill="#FFE8EC"/>
<path transform="translate(935,188)" d="m0 0h9l3 3-1 2-4-3-6 1-11 3-30 4h-29l-18-2-9-2v-1h41l30-1 16-1z" fill="#FFE8EC"/>
<path transform="translate(2033)" d="m0 0h15v22l-4-1-3-6v-2l-4-2-4-9z" fill="#9E0E07"/>
<path transform="translate(949,194)" d="m0 0 19 1 18-1h12v1l-11 2-4 2h-21l-9-2z" fill="#FFE8EC"/>
<path transform="translate(0,299)" d="m0 0h5l8 7 1 6h-14z" fill="#9E0E07"/>
<path transform="translate(1509,169)" d="m0 0 4 2 7 4 19 4 9 1h41v1l-22 2h-14l-17-1-12-3-9-4-6-5z" fill="#FFE8EC"/>
<path transform="translate(796,138)" d="m0 0 22 1 12 3 3 2-21-2h-16l-13 2h-6l4-3 7-2z" fill="#FFE8EC"/>
<path transform="translate(1245,154)" d="m0 0h69l18 1 4 2-1 2-8 1 4-2-5-1-22-1-59-1z" fill="#FFE8EC"/>
<path transform="translate(1455,139)" d="m0 0h29l15 4v1l-11-1-6-1h-30l-7 1 2-2z" fill="#FFE8EC"/>
<path transform="translate(570,113)" d="m0 0h32l7 3v1l-25-1-19-1v-1z" fill="#FFE8EC"/>
<path transform="translate(1607,138)" d="m0 0 19 1 13 4v1l-11-1-4-1-21-1-10 2-6 1 4-3z" fill="#FFE8EC"/>
<path transform="translate(941,138)" d="m0 0 18 1 13 4-4 1-14-2-25-1 3-2z" fill="#FFE8EC"/>
<path transform="translate(1616,194)" d="m0 0 9 1 6 2 14 1v-2l9-2h9v1l-11 1v3h-25l-8-2z" fill="#FFE8EC"/>
<path transform="translate(727,194)" d="m0 0 16 1h10l-2 2 1 2h-11l-11-1-4-3z" fill="#FFE8EC"/>
<path transform="translate(1007,122)" d="m0 0h5l2 4 9 1v1h-25l1-3 4-1z" fill="#FFE8EC"/>
<path transform="translate(580,195)" d="m0 0h25l2 3-13 1-10-1z" fill="#FFE8EC"/>
<path transform="translate(185,184)" d="m0 0 18 4 2 1v2l2 1-8-1-13-4z" fill="#FFE8EC"/>
<path transform="translate(1872,195)" d="m0 0h16l-4 4h-19v-1l7-1z" fill="#FFE8EC"/>
<path transform="translate(171,175)" d="m0 0 2 1-1 2h2v2h6v2l5-1-1 3-9-2-8-2z" fill="#FFE8EC"/>
<path transform="translate(559,81)" d="m0 0h5l1 7-5 1 1-5-2-1-1 4-3-4z" fill="#FEEBEF"/>
<path transform="translate(534,195)" d="m0 0h6v1h-5v2l2 1h-22v-1l14-1z" fill="#FFE8EC"/>
<path transform="translate(359,90)" d="m0 0 7 1 12 2v1h-19l3-2z" fill="#FFE8EC"/>
<path transform="translate(0)" d="m0 0h8l-2 4-6 2z" fill="#9E0E07"/>
<path transform="translate(160,90)" d="m0 0h11v1l-11 3-7-1 3-2z" fill="#FFE8EC"/>
<path transform="translate(112,110)" d="m0 0h5l2 5-4 1-1-3-2-1-1 3-2-1v-2z" fill="#FEE9ED"/>
<path transform="translate(1978,292)" d="m0 0 5 1v4h-6l-1-2z" fill="#FEEFF2"/>
<path transform="translate(567,228)" d="m0 0h2l-1 4-11-1 4-2z" fill="#FFE8EC"/>
</svg>
